<svg width="32" height="32" viewBox="0 0 32 32" fill="none" xmlns="http://www.w3.org/2000/svg">
  <defs>
    <linearGradient id="favicon-gradient" x1="0%" y1="0%" x2="100%" y2="100%">
      <stop offset="0%" style="stop-color:#8B5CF6;stop-opacity:1" />
      <stop offset="50%" style="stop-color:#06B6D4;stop-opacity:1" />
      <stop offset="100%" style="stop-color:#8B5CF6;stop-opacity:1" />
    </linearGradient>
  </defs>
  
  <!-- Background Circle -->
  <circle cx="16" cy="16" r="15" fill="url(#favicon-gradient)"/>
  
  <!-- Brain Icon -->
  <path d="M10 12c-0.7 0-1.3 0.6-1.3 1.3v4c0 2.2 1.8 4 4 4h4c2.2 0 4-1.8 4-4v-4c0-0.7-0.6-1.3-1.3-1.3h-0.7c-0.7 0-1.3 0.6-1.3 1.3v1.3h-1.3v-1.3c0-0.7-0.6-1.3-1.3-1.3H10zm2 5.3h-1.3v-1.3H12v1.3zm4 0h-1.3v-1.3H16v1.3z" fill="white" opacity="0.95"/>
  
  <!-- Sparkle -->
  <circle cx="24" cy="8" r="3" fill="white" opacity="0.8"/>
  <path d="M24 6.5l0.8 1.5 1.5 0.8-1.5 0.8L24 11.5l-0.8-1.5-1.5-0.8 1.5-0.8L24 6.5z" fill="#8B5CF6"/>
</svg>
