<svg width="1200" height="630" viewBox="0 0 1200 630" fill="none" xmlns="http://www.w3.org/2000/svg">
  <!-- Background Gradient -->
  <defs>
    <radialGradient id="backgroundGradient" cx="50%" cy="50%" r="80%">
      <stop offset="0%" style="stop-color:#6366f1;stop-opacity:0.8" />
      <stop offset="50%" style="stop-color:#8b5cf6;stop-opacity:0.6" />
      <stop offset="100%" style="stop-color:#0f172a;stop-opacity:1" />
    </radialGradient>
    <linearGradient id="titleGradient" x1="0%" y1="0%" x2="100%" y2="0%">
      <stop offset="0%" style="stop-color:#f8fafc" />
      <stop offset="50%" style="stop-color:#e2e8f0" />
      <stop offset="100%" style="stop-color:#cbd5e1" />
    </linearGradient>
  </defs>
  
  <!-- Background -->
  <rect width="1200" height="630" fill="url(#backgroundGradient)"/>
  
  <!-- Geometric Pattern -->
  <g opacity="0.1">
    <circle cx="200" cy="150" r="100" fill="#ffffff"/>
    <circle cx="1000" cy="480" r="80" fill="#ffffff"/>
    <rect x="900" y="50" width="120" height="120" rx="20" fill="#ffffff"/>
    <polygon points="100,500 200,400 300,500 200,600" fill="#ffffff"/>
  </g>
  
  <!-- Main Content -->
  <g transform="translate(60, 0)">
    <!-- Logo/Icon -->
    <g transform="translate(80, 120)">
      <rect width="60" height="60" rx="12" fill="#6366f1"/>
      <path d="M20 30 L30 20 L50 30 L40 40 Z" fill="#ffffff"/>
      <circle cx="30" cy="45" r="8" fill="#ffffff"/>
    </g>
    
    <!-- Title -->
    <text x="160" y="160" font-family="Arial, sans-serif" font-size="48" font-weight="bold" fill="url(#titleGradient)">
      StartwiseAI
    </text>
    
    <!-- Subtitle -->
    <text x="160" y="200" font-family="Arial, sans-serif" font-size="24" fill="#e2e8f0">
      AI-Powered Startup Evaluation Platform
    </text>
    
    <!-- Feature highlights -->
    <g transform="translate(160, 250)">
      <text y="30" font-family="Arial, sans-serif" font-size="18" fill="#cbd5e1">
        ✨ RAG-powered market analysis
      </text>
      <text y="60" font-family="Arial, sans-serif" font-size="18" fill="#cbd5e1">
        🚀 Investor-ready pitch generation
      </text>
      <text y="90" font-family="Arial, sans-serif" font-size="18" fill="#cbd5e1">
        📊 Real-time competitive insights
      </text>
      <text y="120" font-family="Arial, sans-serif" font-size="18" fill="#cbd5e1">
        🎯 Success probability assessment
      </text>
    </g>
    
    <!-- Tech badges -->
    <g transform="translate(160, 420)">
      <rect width="80" height="30" rx="15" fill="#6366f1" opacity="0.8"/>
      <text x="40" y="20" font-family="Arial, sans-serif" font-size="12" fill="#ffffff" text-anchor="middle">React</text>
      
      <rect x="90" width="100" height="30" rx="15" fill="#8b5cf6" opacity="0.8"/>
      <text x="140" y="20" font-family="Arial, sans-serif" font-size="12" fill="#ffffff" text-anchor="middle">TypeScript</text>
      
      <rect x="200" width="80" height="30" rx="15" fill="#06b6d4" opacity="0.8"/>
      <text x="240" y="20" font-family="Arial, sans-serif" font-size="12" fill="#ffffff" text-anchor="middle">Flowise</text>
      
      <rect x="290" width="70" height="30" rx="15" fill="#10b981" opacity="0.8"/>
      <text x="325" y="20" font-family="Arial, sans-serif" font-size="12" fill="#ffffff" text-anchor="middle">RAG</text>
    </g>
  </g>
  
  <!-- Right side decoration -->
  <g transform="translate(800, 100)">
    <rect width="300" height="400" rx="20" fill="rgba(255,255,255,0.05)" stroke="rgba(255,255,255,0.1)" stroke-width="2"/>
    <g transform="translate(50, 50)">
      <!-- Chart representation -->
      <rect x="0" y="280" width="30" height="70" fill="#6366f1" opacity="0.7"/>
      <rect x="40" y="200" width="30" height="150" fill="#8b5cf6" opacity="0.7"/>
      <rect x="80" y="120" width="30" height="230" fill="#06b6d4" opacity="0.7"/>
      <rect x="120" y="160" width="30" height="190" fill="#10b981" opacity="0.7"/>
      <rect x="160" y="80" width="30" height="270" fill="#f59e0b" opacity="0.7"/>
      
      <!-- Dashboard elements -->
      <circle cx="100" cy="40" r="15" fill="rgba(255,255,255,0.2)"/>
      <rect x="20" y="25" width="160" height="4" rx="2" fill="rgba(255,255,255,0.1)"/>
      <rect x="20" y="35" width="120" height="4" rx="2" fill="rgba(255,255,255,0.1)"/>
      <rect x="20" y="45" width="140" height="4" rx="2" fill="rgba(255,255,255,0.1)"/>
    </g>
  </g>
</svg>
